<?xml version="1.0" encoding="UTF-8" standalone="no"?><svg xmlns="http://www.w3.org/2000/svg" xmlns:xlink="http://www.w3.org/1999/xlink" contentScriptType="application/ecmascript" contentStyleType="text/css" height="562px" preserveAspectRatio="none" style="width:876px;height:562px;" version="1.1" viewBox="0 0 876 562" width="876px" zoomAndPan="magnify"><defs><filter height="300%" id="f1n6i5g0gcqi9y" width="300%" x="-1" y="-1"><feGaussianBlur result="blurOut" stdDeviation="2.0"/><feColorMatrix in="blurOut" result="blurOut2" type="matrix" values="0 0 0 0 0 0 0 0 0 0 0 0 0 0 0 0 0 0 .4 0"/><feOffset dx="4.0" dy="4.0" in="blurOut2" result="blurOut3"/><feBlend in="SourceGraphic" in2="blurOut3" mode="normal"/></filter></defs><g><ellipse cx="77" cy="48.6982" fill="#000000" filter="url(#f1n6i5g0gcqi9y)" rx="10" ry="10" style="stroke: none; stroke-width: 1.0;"/><rect fill="#FEFECE" filter="url(#f1n6i5g0gcqi9y)" height="33.9688" rx="12.5" ry="12.5" style="stroke: #A80036; stroke-width: 1.5;" width="114" x="20" y="78.6982"/><text fill="#000000" font-family="sans-serif" font-size="12" lengthAdjust="spacingAndGlyphs" textLength="94" x="30" y="99.8369">Push to GitHub</text><rect fill="#FEFECE" filter="url(#f1n6i5g0gcqi9y)" height="33.9688" rx="12.5" ry="12.5" style="stroke: #A80036; stroke-width: 1.5;" width="162" x="98.75" y="426.5732"/><text fill="#000000" font-family="sans-serif" font-size="12" lengthAdjust="spacingAndGlyphs" textLength="142" x="108.75" y="447.7119">Promote to production</text><rect fill="#FEFECE" filter="url(#f1n6i5g0gcqi9y)" height="33.9688" rx="12.5" ry="12.5" style="stroke: #A80036; stroke-width: 1.5;" width="80" x="324" y="132.667"/><text fill="#000000" font-family="sans-serif" font-size="12" lengthAdjust="spacingAndGlyphs" textLength="60" x="334" y="153.8057">Run tests</text><polygon fill="#FEFECE" filter="url(#f1n6i5g0gcqi9y)" points="322,186.6357,406,186.6357,418,198.6357,406,210.6357,322,210.6357,310,198.6357,322,186.6357" style="stroke: #A80036; stroke-width: 1.5;"/><text fill="#000000" font-family="sans-serif" font-size="11" lengthAdjust="spacingAndGlyphs" textLength="84" x="322" y="202.4438">Tests passed?</text><text fill="#000000" font-family="sans-serif" font-size="11" lengthAdjust="spacingAndGlyphs" textLength="28" x="282" y="196.0415">false</text><text fill="#000000" font-family="sans-serif" font-size="11" lengthAdjust="spacingAndGlyphs" textLength="23" x="418" y="196.0415">true</text><ellipse cx="280.75" cy="240.6357" fill="#FFFFFF" filter="url(#f1n6i5g0gcqi9y)" rx="10" ry="10" style="stroke: #000000; stroke-width: 1.5;"/><line style="stroke: #000000; stroke-width: 2.5;" x1="274.5628" x2="286.9372" y1="234.4486" y2="246.8229"/><line style="stroke: #000000; stroke-width: 2.5;" x1="286.9372" x2="274.5628" y1="234.4486" y2="246.8229"/><rect fill="#FEFECE" filter="url(#f1n6i5g0gcqi9y)" height="33.9688" rx="12.5" ry="12.5" style="stroke: #A80036; stroke-width: 1.5;" width="84" x="525.5" y="230.6357"/><text fill="#000000" font-family="sans-serif" font-size="12" lengthAdjust="spacingAndGlyphs" textLength="64" x="535.5" y="251.7744">Build dyno</text><polygon fill="#FEFECE" filter="url(#f1n6i5g0gcqi9y)" points="518,284.6045,617,284.6045,629,296.6045,617,308.6045,518,308.6045,506,296.6045,518,284.6045" style="stroke: #A80036; stroke-width: 1.5;"/><text fill="#000000" font-family="sans-serif" font-size="11" lengthAdjust="spacingAndGlyphs" textLength="99" x="518" y="300.4126">Build successful?</text><text fill="#000000" font-family="sans-serif" font-size="11" lengthAdjust="spacingAndGlyphs" textLength="28" x="478" y="294.0103">false</text><text fill="#000000" font-family="sans-serif" font-size="11" lengthAdjust="spacingAndGlyphs" textLength="23" x="629" y="294.0103">true</text><ellipse cx="461" cy="338.6045" fill="#FFFFFF" filter="url(#f1n6i5g0gcqi9y)" rx="10" ry="10" style="stroke: #000000; stroke-width: 1.5;"/><line style="stroke: #000000; stroke-width: 2.5;" x1="454.8128" x2="467.1872" y1="332.4173" y2="344.7917"/><line style="stroke: #000000; stroke-width: 2.5;" x1="467.1872" x2="454.8128" y1="332.4173" y2="344.7917"/><rect fill="#FEFECE" filter="url(#f1n6i5g0gcqi9y)" height="33.9688" rx="12.5" ry="12.5" style="stroke: #A80036; stroke-width: 1.5;" width="114" x="617" y="328.6045"/><text fill="#000000" font-family="sans-serif" font-size="12" lengthAdjust="spacingAndGlyphs" textLength="94" x="627" y="349.7432">Run migrations</text><polygon fill="#FEFECE" filter="url(#f1n6i5g0gcqi9y)" points="609,382.5732,739,382.5732,751,394.5732,739,406.5732,609,406.5732,597,394.5732,609,382.5732" style="stroke: #A80036; stroke-width: 1.5;"/><text fill="#000000" font-family="sans-serif" font-size="11" lengthAdjust="spacingAndGlyphs" textLength="130" x="609" y="398.3813">Migrations successful?</text><text fill="#000000" font-family="sans-serif" font-size="11" lengthAdjust="spacingAndGlyphs" textLength="23" x="574" y="391.979">true</text><text fill="#000000" font-family="sans-serif" font-size="11" lengthAdjust="spacingAndGlyphs" textLength="28" x="751" y="391.979">false</text><ellipse cx="761" cy="436.5732" fill="#FFFFFF" filter="url(#f1n6i5g0gcqi9y)" rx="10" ry="10" style="stroke: #000000; stroke-width: 1.5;"/><line style="stroke: #000000; stroke-width: 2.5;" x1="754.8128" x2="767.1872" y1="430.3861" y2="442.7604"/><line style="stroke: #000000; stroke-width: 2.5;" x1="767.1872" x2="754.8128" y1="430.3861" y2="442.7604"/><ellipse cx="822" cy="491.542" fill="#FFFFFF" filter="url(#f1n6i5g0gcqi9y)" rx="11" ry="11" style="stroke: #000000; stroke-width: 1.0;"/><ellipse cx="822" cy="491.542" fill="#000000" rx="6" ry="6" style="stroke: #7F7F7F; stroke-width: 1.0;"/><line style="stroke: #A80036; stroke-width: 1.5;" x1="77" x2="77" y1="58.6982" y2="78.6982"/><polygon fill="#A80036" points="73,68.6982,77,78.6982,81,68.6982,77,72.6982" style="stroke: #A80036; stroke-width: 1.0;"/><line style="stroke: #A80036; stroke-width: 1.5;" x1="310" x2="280.75" y1="198.6357" y2="198.6357"/><line style="stroke: #A80036; stroke-width: 1.5;" x1="280.75" x2="280.75" y1="198.6357" y2="230.6357"/><polygon fill="#A80036" points="276.75,220.6357,280.75,230.6357,284.75,220.6357,280.75,224.6357" style="stroke: #A80036; stroke-width: 1.0;"/><line style="stroke: #A80036; stroke-width: 1.5;" x1="364" x2="364" y1="166.6357" y2="186.6357"/><polygon fill="#A80036" points="360,176.6357,364,186.6357,368,176.6357,364,180.6357" style="stroke: #A80036; stroke-width: 1.0;"/><line style="stroke: #A80036; stroke-width: 1.5;" x1="751" x2="761" y1="394.5732" y2="394.5732"/><line style="stroke: #A80036; stroke-width: 1.5;" x1="761" x2="761" y1="394.5732" y2="426.5732"/><polygon fill="#A80036" points="757,416.5732,761,426.5732,765,416.5732,761,420.5732" style="stroke: #A80036; stroke-width: 1.0;"/><line style="stroke: #A80036; stroke-width: 1.5;" x1="674" x2="674" y1="362.5732" y2="382.5732"/><polygon fill="#A80036" points="670,372.5732,674,382.5732,678,372.5732,674,376.5732" style="stroke: #A80036; stroke-width: 1.0;"/><line style="stroke: #A80036; stroke-width: 1.5;" x1="506" x2="461" y1="296.6045" y2="296.6045"/><line style="stroke: #A80036; stroke-width: 1.5;" x1="461" x2="461" y1="296.6045" y2="328.6045"/><polygon fill="#A80036" points="457,318.6045,461,328.6045,465,318.6045,461,322.6045" style="stroke: #A80036; stroke-width: 1.0;"/><line style="stroke: #A80036; stroke-width: 1.5;" x1="629" x2="674" y1="296.6045" y2="296.6045"/><line style="stroke: #A80036; stroke-width: 1.5;" x1="674" x2="674" y1="296.6045" y2="328.6045"/><polygon fill="#A80036" points="670,318.6045,674,328.6045,678,318.6045,674,322.6045" style="stroke: #A80036; stroke-width: 1.0;"/><line style="stroke: #A80036; stroke-width: 1.5;" x1="567.5" x2="567.5" y1="264.6045" y2="284.6045"/><polygon fill="#A80036" points="563.5,274.6045,567.5,284.6045,571.5,274.6045,567.5,278.6045" style="stroke: #A80036; stroke-width: 1.0;"/><line style="stroke: #A80036; stroke-width: 1.5;" x1="77" x2="77" y1="112.667" y2="117.667"/><line style="stroke: #A80036; stroke-width: 1.5;" x1="77" x2="364" y1="117.667" y2="117.667"/><line style="stroke: #A80036; stroke-width: 1.5;" x1="364" x2="364" y1="117.667" y2="132.667"/><polygon fill="#A80036" points="360,122.667,364,132.667,368,122.667,364,126.667" style="stroke: #A80036; stroke-width: 1.0;"/><line style="stroke: #A80036; stroke-width: 1.5;" x1="179.75" x2="179.75" y1="460.542" y2="465.542"/><line style="stroke: #A80036; stroke-width: 1.5;" x1="179.75" x2="822" y1="465.542" y2="465.542"/><line style="stroke: #A80036; stroke-width: 1.5;" x1="822" x2="822" y1="465.542" y2="480.542"/><polygon fill="#A80036" points="818,470.542,822,480.542,826,470.542,822,474.542" style="stroke: #A80036; stroke-width: 1.0;"/><line style="stroke: #A80036; stroke-width: 1.5;" x1="597" x2="179.75" y1="394.5732" y2="394.5732"/><line style="stroke: #A80036; stroke-width: 1.5;" x1="179.75" x2="179.75" y1="394.5732" y2="426.5732"/><polygon fill="#A80036" points="175.75,416.5732,179.75,426.5732,183.75,416.5732,179.75,420.5732" style="stroke: #A80036; stroke-width: 1.0;"/><line style="stroke: #A80036; stroke-width: 1.5;" x1="418" x2="567.5" y1="198.6357" y2="198.6357"/><line style="stroke: #A80036; stroke-width: 1.5;" x1="567.5" x2="567.5" y1="198.6357" y2="230.6357"/><polygon fill="#A80036" points="563.5,220.6357,567.5,230.6357,571.5,220.6357,567.5,224.6357" style="stroke: #A80036; stroke-width: 1.0;"/><text fill="#000000" font-family="sans-serif" font-size="18" lengthAdjust="spacingAndGlyphs" textLength="93" x="93.375" y="29.4531">Developer</text><text fill="#000000" font-family="sans-serif" font-size="18" lengthAdjust="spacingAndGlyphs" textLength="62" x="322.875" y="29.4531">GitHub</text><text fill="#000000" font-family="sans-serif" font-size="18" lengthAdjust="spacingAndGlyphs" textLength="148" x="539" y="29.4531">Heroku Unstable</text><text fill="#000000" font-family="sans-serif" font-size="18" lengthAdjust="spacingAndGlyphs" textLength="65" x="789" y="29.4531">Heroku</text><line style="stroke: #000000; stroke-width: 2.0;" x1="10" x2="10" y1="12.7451" y2="550.542"/><line style="stroke: #000000; stroke-width: 2.0;" x1="265.75" x2="265.75" y1="12.7451" y2="550.542"/><line style="stroke: #000000; stroke-width: 2.0;" x1="446" x2="446" y1="12.7451" y2="550.542"/><line style="stroke: #000000; stroke-width: 2.0;" x1="784" x2="784" y1="12.7451" y2="550.542"/><line style="stroke: #000000; stroke-width: 2.0;" x1="864" x2="864" y1="12.7451" y2="550.542"/><!--MD5=[f9359c3f15197c1330c4ff00952b020e]
@startuml
|Developer|
start
:Push to GitHub;

|GitHub|
:Run tests;
if (Tests passed?) then (false)
  end
else (true)
  |Heroku Unstable|
  :Build dyno;
  if (Build successful?) then (false)
    end
  else (true)
    :Run migrations;
    if (Migrations successful?) then (true)
      |Developer|
      :Promote to production;

      |Heroku|
      stop
    else (false)
      |Heroku Unstable|
      end
    endif
  endif
endif
@enduml

PlantUML version 1.2019.12(Sun Nov 03 10:24:54 UTC 2019)
(GPL source distribution)
Java Runtime: OpenJDK Runtime Environment
JVM: OpenJDK 64-Bit Server VM
Java Version: 1.8.0_232-heroku-b09
Operating System: Linux
Default Encoding: UTF-8
Language: en
Country: US
--></g></svg>